<svg width="52" height="49" viewBox="0 0 52 49" fill="none" xmlns="http://www.w3.org/2000/svg">
<path d="M25.3037 44.4349L6.33423 23.5747C6.33412 23.5745 6.334 23.5744 6.33388 23.5743C5.30617 22.4464 4.50078 21.1027 3.96463 19.6262C3.42843 18.1497 3.17216 16.5698 3.21055 14.9827C3.24895 13.3956 3.58126 11.8326 4.18835 10.3888C4.79546 8.94506 5.66529 7.64936 6.74701 6.58238L6.75159 6.57786L6.75162 6.57789C8.66341 4.74011 11.1322 3.73218 13.6894 3.76004C15.2368 3.76551 16.7667 4.10626 18.1913 4.76129C19.6159 5.41636 20.906 6.37225 21.9891 7.57178C21.9894 7.57205 21.9896 7.57232 21.9899 7.5726L25.0257 10.911C25.026 10.9113 25.0262 10.9116 25.0265 10.9119C25.2889 11.1973 25.6325 11.3473 25.9796 11.3473C26.3265 11.3473 26.6701 11.1973 26.9325 10.912C26.9328 10.9117 26.9331 10.9113 26.9334 10.911L30.4572 7.03599L25.3037 44.4349ZM25.3037 44.4349L25.6096 44.7713L26.9318 46.2253L27.3017 45.8889L27.6716 45.5525L26.6554 44.4349L45.1372 24.111C45.1374 24.1107 45.1376 24.1105 45.1379 24.1102L45.1381 24.1099L44.7682 23.7735M25.3037 44.4349L30.4576 7.0356L30.8275 7.37199C31.8078 6.29169 32.9781 5.4426 34.267 4.87661C35.5558 4.31063 36.9361 4.03965 38.3235 4.08024C39.7108 4.12082 41.076 4.47213 42.3357 5.11267C43.5953 5.75321 44.723 6.66953 45.6497 7.80562C49.1986 12.1675 48.8275 19.3352 44.7682 23.7735M44.7682 23.7735L26.3175 44.0633M44.7682 23.7735L26.3175 44.0633M26.3175 44.0633L26.3495 44.0985L26.3175 44.0633ZM25.9845 48.0162L25.9845 48.0161L25.9747 48.0162C25.5614 48.0203 25.1503 47.9325 24.7656 47.7565C24.3807 47.5805 24.0287 47.3191 23.7323 46.9853L23.7323 46.9853L23.7283 46.9809L4.45259 25.7839L4.45214 25.7834C3.15975 24.366 2.14147 22.6709 1.46187 20.8006C0.782255 18.9303 0.45625 16.9258 0.504709 14.9101C0.553167 12.8944 0.975018 10.9119 1.74329 9.08434C2.51155 7.25677 3.60938 5.62398 4.96731 4.28437L4.96758 4.28411C6.26886 2.99845 7.79141 2.01999 9.44146 1.40533C11.0913 0.790731 12.8361 0.551954 14.5704 0.702405L14.5704 0.702462L14.578 0.703005C18.0786 0.953077 21.3847 2.60433 23.8685 5.36002L23.8684 5.36004L23.8722 5.36412L25.6119 7.2517L25.9801 7.65121L26.3477 7.25116L28.5745 4.82792L28.5767 4.8255C29.8656 3.40436 31.4018 2.29028 33.0897 1.54856C34.7775 0.806921 36.5832 0.452398 38.3969 0.505126C40.2106 0.557854 41.9972 1.01682 43.6478 1.8559C45.2986 2.69506 46.7799 3.89748 47.9993 5.39234L47.9996 5.39263C49.1701 6.82537 50.0656 8.50755 50.6294 10.3378C51.1932 12.168 51.413 14.1064 51.2746 16.0344L51.2746 16.0344L51.2742 16.0407C51.0444 19.9307 49.5276 23.5857 47.0209 26.3179L47.0194 26.3195L28.2308 46.9809L28.2308 46.9809L28.2268 46.9853C27.9304 47.3191 27.5784 47.5805 27.1935 47.7565C26.8088 47.9325 26.3977 48.0203 25.9845 48.0162Z" fill="white" stroke="#4B545A"/>
</svg>
