<svg width="28" height="26" viewBox="0 0 28 26" fill="none" xmlns="http://www.w3.org/2000/svg">
<path d="M27.5 13C27.5 19.8693 21.4914 25.5 14 25.5C6.50862 25.5 0.5 19.8693 0.5 13C0.5 6.13069 6.50862 0.5 14 0.5C21.4914 0.5 27.5 6.13069 27.5 13Z" stroke="#3062D5"/>
<path d="M12.7647 19.566L12.764 19.5654C10.8236 17.6476 9.25105 16.0903 8.15782 14.6326C7.07105 13.1834 6.5 11.886 6.5 10.4959C6.5 8.20539 8.13023 6.5 10.125 6.5C11.2621 6.5 12.3751 7.07988 13.1072 8.00961L13.5 8.50846L13.8928 8.00961C14.6249 7.07988 15.7379 6.5 16.875 6.5C18.8698 6.5 20.5 8.20539 20.5 10.4959C20.5 11.886 19.9289 13.1834 18.8422 14.6326C17.7489 16.0903 16.1764 17.6476 14.236 19.5654L14.2353 19.566L13.5 20.2956L12.7647 19.566Z" stroke="#3062D5"/>
</svg>
