<svg width="28" height="26" viewBox="0 0 28 26" fill="none" xmlns="http://www.w3.org/2000/svg">
<path fill-rule="evenodd" clip-rule="evenodd" d="M27 13C27 19.5589 21.2508 25 14 25C6.74922 25 1 19.5589 1 13C1 6.44108 6.74922 1 14 1C21.2508 1 27 6.44108 27 13ZM28 13C28 20.1797 21.732 26 14 26C6.26801 26 0 20.1797 0 13C0 5.8203 6.26801 0 14 0C21.732 0 28 5.8203 28 13ZM12.4125 19.921L13.5 21L14.5875 19.921C18.45 16.1035 21 13.5777 21 10.4959C21 7.97003 19.185 6 16.875 6C15.57 6 14.3175 6.66213 13.5 7.70027C12.6825 6.66213 11.43 6 10.125 6C7.815 6 6 7.97003 6 10.4959C6 13.5777 8.55 16.1035 12.4125 19.921Z" fill="#3062D5"/>
</svg>
